#define logo_width 40
#define logo_height 8
static unsigned char logo_bits[] = {
 0x1F, 0xCF, 0x39, 0x17, 0x00, 0xA2, 0x99, 0x91, 0x19, 0x00, 0xA2, 0x90,
 0x93, 0x10, 0x00, 0xA2, 0x90, 0x92, 0x00, 0x00, 0xBE, 0x90, 0x94, 0x3C,
 0x00, 0x82, 0x90, 0x9C, 0x10, 0x00, 0x82, 0x99, 0x98, 0x11, 0x00, 0x0F,
 0xCF, 0x1B, 0x1F, 0x00 };
